<?xml version="1.0" encoding="UTF-8"?>
<svg width="88px" height="88px" viewBox="0 0 88 88" version="1.1" xmlns="http://www.w3.org/2000/svg" xmlns:xlink="http://www.w3.org/1999/xlink" xmlns:sketch="http://www.bohemiancoding.com/sketch/ns">
    <!-- Generator: Sketch 3.3.3 (12081) - http://www.bohemiancoding.com/sketch -->
    <title>Untitled</title>
    <desc>Created with Sketch.</desc>
    <defs></defs>
    <g id="Page-1" stroke="none" stroke-width="1" fill="none" fill-rule="evenodd" sketch:type="MSPage">
        <g id="noun_641778_cc" sketch:type="MSLayerGroup" fill="#1883FF">
            <g id="Group" sketch:type="MSShapeGroup">
                <path d="M44,8.108 L44.952,6.457 L34.327,0.333 L12.058,13.19 L12.058,25.163 L0.35,31.923 L0.35,57.637 L12.058,64.397 L12.058,74.809 L34.329,87.667 L45.906,80.97 L45.906,50.997 L45.868,44.001 L45.906,38.411 L45.906,7.007 L44.952,6.457 L44,8.108 L42.094,8.108 L42.094,38.398 L42.094,38.385 L42.057,43.995 L42.094,51.026 L42.094,78.771 L34.327,83.265 L15.869,72.608 L15.869,62.196 L4.162,55.437 L4.162,34.123 L15.869,27.364 L15.869,15.391 L34.329,4.733 L43.048,9.759 L44,8.108 L42.094,8.108 L44,8.108 Z" id="Shape"></path>
                <path d="M13.042,27.931 L19.506,31.504 L21.35,28.168 L14.886,24.596" id="Shape"></path>
                <circle id="Oval" transform="translate(20.285040, 29.758137) rotate(-61.071727) translate(-20.285040, -29.758137) " cx="20.2850398" cy="29.7581374" r="2.86591506"></circle>
                <path d="M18.715,32.6 C17.148,31.734 16.578,29.754 17.444,28.187 C18.31,26.62 20.29,26.05 21.857,26.916 C23.424,27.782 23.994,29.762 23.128,31.329 C22.262,32.895 20.282,33.466 18.715,32.6 C17.149,31.734 20.282,33.466 18.715,32.6 L18.715,32.6 Z M21.488,27.583 C20.289,26.92 18.774,27.356 18.111,28.556 C17.448,29.756 17.884,31.27 19.084,31.933 C20.284,32.596 21.798,32.16 22.461,30.96 C23.124,29.76 22.688,28.246 21.488,27.583 C20.289,26.92 22.688,28.246 21.488,27.583 L21.488,27.583 Z" id="Shape"></path>
                <path d="M14.787,65.015 L21.169,61.958 L19.523,58.521 L13.14,61.578" id="Shape"></path>
                <circle id="Oval" transform="translate(20.199268, 60.311887) rotate(-25.593899) translate(-20.199268, -60.311887) " cx="20.199268" cy="60.3118871" r="2.86606822"></circle>
                <path d="M21.602,63.238 C19.987,64.011 18.044,63.327 17.271,61.712 C16.498,60.097 17.182,58.154 18.797,57.381 C20.412,56.608 22.355,57.292 23.128,58.907 C23.902,60.521 23.217,62.464 21.602,63.238 C19.988,64.011 23.217,62.464 21.602,63.238 L21.602,63.238 Z M19.126,58.068 C17.89,58.66 17.366,60.147 17.959,61.382 C18.551,62.618 20.038,63.142 21.273,62.549 C22.509,61.957 23.033,60.47 22.44,59.234 C21.849,58 20.362,57.476 19.126,58.068 C17.89,58.661 20.362,57.476 19.126,58.068 L19.126,58.068 Z" id="Shape"></path>
                <path d="M27.079,21.062 L30.137,23.42 L30.137,33.045 L21.812,38.638 L21.812,52.59 L30.137,56.363 L30.137,66.289 L26.708,69.576 L29.345,72.327 L33.949,67.915 L33.949,53.905 L25.623,50.133 L25.623,40.669 L33.949,35.076 L33.949,21.545 L29.406,18.043 L27.079,21.062 L27.079,21.062 Z" id="Shape"></path>
                <circle id="Oval" transform="translate(28.370580, 19.651814) rotate(-52.373766) translate(-28.370580, -19.651814) " cx="28.3705795" cy="19.651814" r="2.8659631"></circle>
                <path d="M26.388,22.224 C27.806,23.317 29.849,23.053 30.942,21.635 C32.035,20.217 31.771,18.174 30.353,17.081 C28.935,15.988 26.892,16.252 25.799,17.67 C24.706,19.088 24.97,21.13 26.388,22.224 C27.806,23.316 24.97,21.13 26.388,22.224 L26.388,22.224 Z M29.888,17.684 C30.973,18.521 31.176,20.084 30.339,21.169 C29.502,22.254 27.939,22.457 26.854,21.62 C25.769,20.783 25.566,19.22 26.403,18.135 C27.239,17.049 28.802,16.847 29.888,17.684 C30.973,18.52 28.802,16.847 29.888,17.684 L29.888,17.684 Z" id="Shape"></path>
                <circle id="Oval" transform="translate(28.142850, 70.840616) rotate(-43.780435) translate(-28.142850, -70.840616) " cx="28.1428501" cy="70.8406163" r="2.86601377"></circle>
                <path d="M25.897,68.495 C27.19,67.256 29.249,67.3 30.488,68.593 C31.727,69.886 31.683,71.945 30.39,73.184 C29.097,74.423 27.038,74.379 25.799,73.086 C24.56,71.793 24.604,69.734 25.897,68.495 C27.189,67.256 24.604,69.734 25.897,68.495 L25.897,68.495 Z M29.863,72.633 C30.852,71.685 30.886,70.109 29.938,69.12 C28.99,68.131 27.414,68.097 26.425,69.045 C25.435,69.993 25.402,71.569 26.35,72.558 C27.298,73.548 28.873,73.581 29.863,72.633 C30.852,71.685 28.873,73.581 29.863,72.633 L29.863,72.633 Z" id="Shape"></path>
                <path d="M2.256,47.283 L9.576,47.283 L9.576,43.472 L2.256,43.472" id="Shape"></path>
                <circle id="Oval" cx="9.413" cy="45.378" r="2.866"></circle>
                <path d="M9.413,48.625 C7.623,48.625 6.166,47.168 6.166,45.378 C6.166,43.588 7.623,42.131 9.413,42.131 C11.203,42.131 12.66,43.588 12.66,45.378 C12.66,47.168 11.204,48.625 9.413,48.625 C7.623,48.625 11.204,48.625 9.413,48.625 L9.413,48.625 Z M9.413,42.893 C8.043,42.893 6.928,44.007 6.928,45.378 C6.928,46.748 8.042,47.863 9.413,47.863 C10.783,47.863 11.898,46.749 11.898,45.378 C11.898,44.007 10.784,42.893 9.413,42.893 C8.043,42.893 10.784,42.893 9.413,42.893 L9.413,42.893 Z" id="Shape"></path>
                <path d="M36.561,47.283 L43.881,47.283 L43.881,43.472 L36.561,43.472" id="Shape"></path>
                <circle id="Oval" cx="36.724" cy="45.378" r="2.866"></circle>
                <path d="M36.724,48.625 C38.514,48.625 39.971,47.168 39.971,45.378 C39.971,43.588 38.514,42.131 36.724,42.131 C34.934,42.131 33.477,43.588 33.477,45.378 C33.477,47.168 34.933,48.625 36.724,48.625 C38.514,48.625 34.933,48.625 36.724,48.625 L36.724,48.625 Z M36.724,42.893 C38.094,42.893 39.209,44.007 39.209,45.378 C39.209,46.748 38.095,47.863 36.724,47.863 C35.354,47.863 34.239,46.749 34.239,45.378 C34.239,44.007 35.353,42.893 36.724,42.893 C38.094,42.893 35.353,42.893 36.724,42.893 L36.724,42.893 Z" id="Shape"></path>
                <path d="M44,8.108 L44.952,9.759 L53.671,4.733 L72.131,15.391 L72.131,27.364 L83.838,34.123 L83.838,55.437 L72.131,62.196 L72.131,72.608 L53.673,83.265 L45.906,78.771 L45.906,51.016 L45.944,43.993 L45.906,38.385 L45.906,38.398 L45.906,8.108 L44,8.108 L44.952,9.759 L44,8.108 L42.094,8.108 L42.094,38.414 L42.132,44.003 L42.094,51.006 L42.094,80.97 L53.671,87.667 L75.942,74.809 L75.942,64.397 L87.65,57.638 L87.65,31.923 L75.942,25.163 L75.942,13.19 L53.673,0.333 L42.094,7.007 L42.094,8.108 L44,8.108 Z" id="Shape"></path>
                <path d="M73.115,24.596 L66.65,28.168 L68.494,31.504 L74.958,27.931" id="Shape"></path>
                <circle id="Oval" transform="translate(67.711737, 29.759040) rotate(-28.928273) translate(-67.711737, -29.759040) " cx="67.7117374" cy="29.7590398" r="2.86591506"></circle>
                <path d="M66.143,26.916 C67.71,26.05 69.69,26.62 70.556,28.187 C71.422,29.754 70.852,31.734 69.285,32.6 C67.718,33.466 65.738,32.896 64.872,31.329 C64.006,29.761 64.576,27.782 66.143,26.916 C67.71,26.05 64.576,27.782 66.143,26.916 L66.143,26.916 Z M68.916,31.932 C70.115,31.269 70.552,29.755 69.889,28.555 C69.226,27.355 67.712,26.919 66.512,27.582 C65.312,28.245 64.876,29.759 65.539,30.959 C66.202,32.159 67.717,32.595 68.916,31.932 C70.115,31.27 67.717,32.595 68.916,31.932 L68.916,31.932 Z" id="Shape"></path>
                <path d="M74.86,61.578 L68.477,58.521 L66.831,61.958 L73.213,65.015" id="Shape"></path>
                <circle id="Oval" transform="translate(67.800719, 60.303466) rotate(-64.406101) translate(-67.800719, -60.303466) " cx="67.8007191" cy="60.3034661" r="2.86606822"></circle>
                <path d="M69.203,57.381 C70.818,58.154 71.502,60.098 70.729,61.712 C69.956,63.327 68.012,64.011 66.398,63.238 C64.783,62.465 64.099,60.521 64.872,58.907 C65.646,57.292 67.589,56.608 69.203,57.381 C70.818,58.154 67.589,56.608 69.203,57.381 L69.203,57.381 Z M66.727,62.55 C67.963,63.142 69.449,62.618 70.041,61.383 C70.633,60.147 70.109,58.661 68.874,58.069 C67.638,57.477 66.152,58 65.559,59.236 C64.967,60.472 65.491,61.958 66.727,62.55 C67.963,63.142 65.491,61.958 66.727,62.55 L66.727,62.55 Z" id="Shape"></path>
                <path d="M58.594,18.043 L54.051,21.545 L54.051,35.076 L62.377,40.669 L62.377,50.133 L54.051,53.905 L54.051,67.915 L58.655,72.327 L61.293,69.576 L57.863,66.289 L57.863,56.363 L66.188,52.59 L66.188,38.638 L57.863,33.045 L57.863,23.42 L60.921,21.062 L58.595,18.043 L58.594,18.043 Z" id="Shape"></path>
                <circle id="Oval" transform="translate(59.628114, 19.651779) rotate(-37.626234) translate(-59.628114, -19.651779) " cx="59.628114" cy="19.6517795" r="2.8659631"></circle>
                <path d="M57.647,17.08 C56.229,18.173 55.965,20.216 57.058,21.634 C58.151,23.052 60.194,23.316 61.612,22.223 C63.03,21.13 63.294,19.087 62.201,17.669 C61.108,16.251 59.065,15.987 57.647,17.08 C56.229,18.173 59.065,15.987 57.647,17.08 L57.647,17.08 Z M61.146,21.62 C60.061,22.457 58.498,22.254 57.661,21.169 C56.824,20.084 57.027,18.521 58.112,17.684 C59.197,16.847 60.76,17.05 61.597,18.135 C62.434,19.22 62.232,20.783 61.146,21.62 C60.061,22.456 62.232,20.783 61.146,21.62 L61.146,21.62 Z" id="Shape"></path>
                <circle id="Oval" transform="translate(59.857316, 70.837450) rotate(-46.219565) translate(-59.857316, -70.837450) " cx="59.8573163" cy="70.8374501" r="2.86601377"></circle>
                <path d="M57.61,73.184 C56.317,71.945 56.274,69.886 57.512,68.593 C58.751,67.3 60.81,67.257 62.103,68.495 C63.396,69.734 63.439,71.794 62.201,73.086 C60.962,74.379 58.903,74.422 57.61,73.184 C56.317,71.945 58.903,74.422 57.61,73.184 L57.61,73.184 Z M61.576,69.045 C60.587,68.097 59.011,68.13 58.063,69.12 C57.115,70.109 57.148,71.685 58.138,72.633 C59.128,73.581 60.703,73.548 61.651,72.558 C62.599,71.569 62.565,69.993 61.576,69.045 C60.587,68.097 62.565,69.993 61.576,69.045 L61.576,69.045 Z" id="Shape"></path>
                <path d="M85.744,43.472 L78.425,43.472 L78.425,47.283 L85.744,47.283" id="Shape"></path>
                <circle id="Oval" cx="78.587" cy="45.378" r="2.866"></circle>
                <path d="M78.587,42.131 C80.377,42.131 81.834,43.588 81.834,45.378 C81.834,47.168 80.377,48.625 78.587,48.625 C76.797,48.625 75.34,47.168 75.34,45.378 C75.34,43.587 76.797,42.131 78.587,42.131 C80.377,42.131 76.797,42.131 78.587,42.131 L78.587,42.131 Z M78.587,47.862 C79.957,47.862 81.072,46.748 81.072,45.377 C81.072,44.007 79.958,42.892 78.587,42.892 C77.217,42.892 76.102,44.006 76.102,45.377 C76.102,46.748 77.216,47.862 78.587,47.862 C79.957,47.862 77.216,47.862 78.587,47.862 L78.587,47.862 Z" id="Shape"></path>
                <path d="M51.439,43.472 L44.119,43.472 L44.119,47.283 L51.439,47.283" id="Shape"></path>
                <circle id="Oval" cx="51.276" cy="45.378" r="2.866"></circle>
                <path d="M51.276,42.131 C49.486,42.131 48.029,43.588 48.029,45.378 C48.029,47.168 49.486,48.625 51.276,48.625 C53.066,48.625 54.523,47.168 54.523,45.378 C54.523,43.587 53.067,42.131 51.276,42.131 C49.485,42.131 53.067,42.131 51.276,42.131 L51.276,42.131 Z M51.276,47.862 C49.906,47.862 48.791,46.748 48.791,45.377 C48.791,44.007 49.905,42.892 51.276,42.892 C52.647,42.892 53.761,44.006 53.761,45.377 C53.761,46.748 52.647,47.862 51.276,47.862 C49.905,47.862 52.647,47.862 51.276,47.862 L51.276,47.862 Z" id="Shape"></path>
            </g>
        </g>
    </g>
</svg>